# xmcd
#
# Track frame offsets:
#	150
#	15730
#	29444
#	42804
#	60159
#	75011
#	90811
#	106885
#	126208
#	139359
#	159483
#	174065
#	188939
#	209431
#	223709
#	244708
#
# Disc length: 3474 seconds
# Revision: 2
# Processed by: cddbd v1.5.2PL0 Copyright (c) Steve Scherf et al.
# Submitted via: dBpowerAMP V12.0
#
DISCID=c20d9010
DTITLE=George Strait - The Cowboy Rides Away: Live From AT&T Stadium (Deluxe Edition)
DYEAR=2014
DGENRE=Country
TTITLE0=Check Yes Or No
TTITLE1=The Love Bug (with Vince Gill)
TTITLE2=Fool Hearted Memory (with Jason Aldean)
TTITLE3=Arkansas Dave (with Bubba Strait)
TTITLE4=Cowboys Like Us (with Eric Church)
TTITLE5=Easy Come, Easy Go (with Eric Church)
TTITLE6=That's What Breaking Hearts Do
TTITLE7=Marina Del Rey
TTITLE8=Here For A Good Time (with Sheryl Crow)
TTITLE9=I Can Still Make Cheyenne
TTITLE10=Jackson (with Martina McBride)
TTITLE11=I Saw God Today
TTITLE12=Drinkin' Man
TTITLE13=River Of Love
TTITLE14=A Showman's Life (with Faith Hill)
TTITLE15=Amarillo By Morning (with Alan Jackson)
EXTD=
EXTT0=
EXTT1=
EXTT2=
EXTT3=
EXTT4=
EXTT5=
EXTT6=
EXTT7=
EXTT8=
EXTT9=
EXTT10=
EXTT11=
EXTT12=
EXTT13=
EXTT14=
EXTT15=
PLAYORDER=
